{
    "asset": {
        "version": "1.0",
        "generator": "Open Asset Import Library (assimp v4.1.0)"
    },
    "accessors": {
        "Cube.011_accessor": {
            "bufferView": "Cube.011_view",
            "byteOffset": 0,
            "byteStride": 0,
            "componentType": 5126,
            "count": 7003,
            "type": "VEC3",
            "max": [
                0.6111352443695068,
                0.658461332321167,
                1.4133739471435547
            ],
            "min": [
                -0.6111352443695068,
                -1.057547688484192,
                -0.0019034537253901363
            ]
        },
        "Cube.011_accessor_0": {
            "bufferView": "Cube.011_view_0",
            "byteOffset": 0,
            "byteStride": 0,
            "componentType": 5126,
            "count": 7003,
            "type": "VEC3",
            "max": [
                1.0,
                0.99993896484375,
                1.0
            ],
            "min": [
                -1.0,
                -1.0,
                -0.999969482421875
            ]
        },
        "Cube.011_accessor_1": {
            "bufferView": "Cube.011_view_1",
            "byteOffset": 0,
            "byteStride": 0,
            "componentType": 5126,
            "count": 7003,
            "type": "VEC2",
            "max": [
                0.8457823991775513,
                0.6194604635238648
            ],
            "min": [
                0.02396911382675171,
                0.061308979988098147
            ]
        },
        "Cube.011_accessor_2": {
            "bufferView": "Cube.011_view_2",
            "byteOffset": 0,
            "byteStride": 0,
            "componentType": 5123,
            "count": 12708,
            "type": "SCALAR",
            "max": [
                7002.0
            ],
            "min": [
                0.0
            ]
        }
    },
    "buffers": {
        "../../download/91vs0zdve9j4/91vs0zdve9j4": {
            "byteLength": 249512,
            "type": "arraybuffer",
            "uri": "../../download/91vs0zdve9j4/91vs0zdve9j4.bin"
        }
    },
    "bufferViews": {
        "Cube.011_view": {
            "buffer": "../../download/91vs0zdve9j4/91vs0zdve9j4",
            "byteOffset": 0,
            "byteLength": 84036,
            "target": 34962
        },
        "Cube.011_view_0": {
            "buffer": "../../download/91vs0zdve9j4/91vs0zdve9j4",
            "byteOffset": 84036,
            "byteLength": 84036,
            "target": 34962
        },
        "Cube.011_view_1": {
            "buffer": "../../download/91vs0zdve9j4/91vs0zdve9j4",
            "byteOffset": 168072,
            "byteLength": 56024,
            "target": 34962
        },
        "Cube.011_view_2": {
            "buffer": "../../download/91vs0zdve9j4/91vs0zdve9j4",
            "byteOffset": 224096,
            "byteLength": 25416,
            "target": 34963
        }
    },
    "materials": {
        "Texture": {
            "values": {
                "ambient": [
                    0.0,
                    0.0,
                    0.0,
                    1.0
                ],
                "diffuse": [
                    0.800000011920929,
                    0.800000011920929,
                    0.800000011920929,
                    1.0
                ],
                "specular": [
                    1.0,
                    1.0,
                    1.0,
                    1.0
                ],
                "emission": [
                    0.0,
                    0.0,
                    0.0,
                    1.0
                ],
                "shininess": 50.0
            }
        }
    },
    "meshes": {
        "Cube.011": {
            "name": "",
            "primitives": [
                {
                    "mode": 4,
                    "material": "Texture",
                    "indices": "Cube.011_accessor_2",
                    "attributes": {
                        "POSITION": "Cube.011_accessor",
                        "NORMAL": "Cube.011_accessor_0",
                        "TEXCOORD_0": "Cube.011_accessor_1"
                    }
                }
            ]
        }
    },
    "nodes": {
        "<BlenderRoot>": {
            "children": [
                "House1"
            ]
        },
        "House1": {
            "meshes": [
                "Cube.011"
            ]
        }
    },
    "scenes": {
        "defaultScene": {
            "nodes": [
                "<BlenderRoot>"
            ]
        }
    },
    "scene": "defaultScene"
}