{
	"asset":{
		"generator":"Khronos glTF Blender I/O v5.0.21",
		"version":"2.0"
	},
	"extensionsUsed":[
		"KHR_materials_specular"
	],
	"scene":0,
	"scenes":[
		{
			"name":"Scene",
			"nodes":[
				0
			]
		}
	],
	"nodes":[
		{
			"mesh":0,
			"name":"House5"
		}
	],
	"materials":[
		{
			"doubleSided":true,
			"extensions":{
				"KHR_materials_specular":{
					"specularColorFactor":[
						2.0,
						2.0,
						2.0
					]
				}
			},
			"name":"Texture",
			"pbrMetallicRoughness":{
				"baseColorFactor":[
					0.800000011920929,
					0.800000011920929,
					0.800000011920929,
					1
				],
				"roughnessFactor":0.5527864098548889
			}
		}
	],
	"meshes":[
		{
			"name":"Cube.000",
			"primitives":[
				{
					"attributes":{
						"POSITION":0,
						"NORMAL":1,
						"TEXCOORD_0":2
					},
					"indices":3,
					"material":0
				}
			]
		}
	],
	"accessors":[
		{
			"bufferView":0,
			"componentType":5126,
			"count":3956,
			"max":[
				1.028169870376587,
				1.3386677503585815,
				1.094911813735962
			],
			"min":[
				-1.1353336572647095,
				-0.004091750364750624,
				-1.095330834388733
			],
			"type":"VEC3"
		},
		{
			"bufferView":1,
			"componentType":5126,
			"count":3956,
			"type":"VEC3"
		},
		{
			"bufferView":2,
			"componentType":5126,
			"count":3956,
			"type":"VEC2"
		},
		{
			"bufferView":3,
			"componentType":5123,
			"count":7872,
			"type":"SCALAR"
		}
	],
	"bufferViews":[
		{
			"buffer":0,
			"byteLength":47472,
			"byteOffset":0,
			"target":34962
		},
		{
			"buffer":0,
			"byteLength":47472,
			"byteOffset":47472,
			"target":34962
		},
		{
			"buffer":0,
			"byteLength":31648,
			"byteOffset":94944,
			"target":34962
		},
		{
			"buffer":0,
			"byteLength":15744,
			"byteOffset":126592,
			"target":34963
		}
	],
	"buffers":[
		{
			"byteLength":142336,
			"uri":"model.bin"
		}
	]
}
