{
	"asset":{
		"generator":"Khronos glTF Blender I/O v5.0.21",
		"version":"2.0"
	},
	"extensionsUsed":[
		"KHR_materials_specular"
	],
	"scene":0,
	"scenes":[
		{
			"name":"Scene",
			"nodes":[
				0
			]
		}
	],
	"nodes":[
		{
			"mesh":0,
			"name":"House4"
		}
	],
	"materials":[
		{
			"doubleSided":true,
			"extensions":{
				"KHR_materials_specular":{
					"specularColorFactor":[
						2.0,
						2.0,
						2.0
					]
				}
			},
			"name":"Texture",
			"pbrMetallicRoughness":{
				"baseColorFactor":[
					0.800000011920929,
					0.800000011920929,
					0.800000011920929,
					1
				],
				"roughnessFactor":0.5527864098548889
			}
		}
	],
	"meshes":[
		{
			"name":"Cube.018",
			"primitives":[
				{
					"attributes":{
						"POSITION":0,
						"NORMAL":1,
						"TEXCOORD_0":2
					},
					"indices":3,
					"material":0
				}
			]
		}
	],
	"accessors":[
		{
			"bufferView":0,
			"componentType":5126,
			"count":2710,
			"max":[
				1.0205730199813843,
				1.3420308828353882,
				0.7142142653465271
			],
			"min":[
				-1.1429311037063599,
				-0.0007287818007171154,
				-0.7221586108207703
			],
			"type":"VEC3"
		},
		{
			"bufferView":1,
			"componentType":5126,
			"count":2710,
			"type":"VEC3"
		},
		{
			"bufferView":2,
			"componentType":5126,
			"count":2710,
			"type":"VEC2"
		},
		{
			"bufferView":3,
			"componentType":5123,
			"count":6144,
			"type":"SCALAR"
		}
	],
	"bufferViews":[
		{
			"buffer":0,
			"byteLength":32520,
			"byteOffset":0,
			"target":34962
		},
		{
			"buffer":0,
			"byteLength":32520,
			"byteOffset":32520,
			"target":34962
		},
		{
			"buffer":0,
			"byteLength":21680,
			"byteOffset":65040,
			"target":34962
		},
		{
			"buffer":0,
			"byteLength":12288,
			"byteOffset":86720,
			"target":34963
		}
	],
	"buffers":[
		{
			"byteLength":99008,
			"uri":"model.bin"
		}
	]
}
